<svg id="Logo" xmlns="http://www.w3.org/2000/svg" xmlns:xlink="http://www.w3.org/1999/xlink" viewBox="0 0 375.87 490.41"><defs><style>.cls-1{fill:#4e4e4d;}.cls-2{fill:url(#linear-gradient);}.cls-3{fill:url(#linear-gradient-2);}.cls-4{fill:url(#linear-gradient-3);}.cls-5{fill:url(#linear-gradient-4);}.cls-6{fill:url(#linear-gradient-5);}.cls-7{fill:url(#linear-gradient-6);}.cls-8{fill:url(#linear-gradient-7);}.cls-9{fill:url(#linear-gradient-8);}.cls-10{fill:url(#linear-gradient-9);}</style><linearGradient id="linear-gradient" x1="403.97" y1="165.83" x2="450.61" y2="409.04" gradientTransform="matrix(0.97, 0.26, -0.26, 0.97, 105.76, -106.31)" gradientUnits="userSpaceOnUse"><stop offset="0" stop-color="#9dc44d"/><stop offset="1" stop-color="#5fa69b"/></linearGradient><linearGradient id="linear-gradient-2" x1="472.61" y1="180.33" x2="515.41" y2="403.49" gradientTransform="translate(73.48 -84.16) rotate(8.54)" xlink:href="#linear-gradient"/><linearGradient id="linear-gradient-3" x1="237.81" y1="203.73" x2="280.61" y2="426.89" gradientTransform="translate(9.14 15.46) rotate(-1.74)" xlink:href="#linear-gradient"/><linearGradient id="linear-gradient-4" x1="346.2" y1="177.79" x2="400.8" y2="462.49" gradientTransform="matrix(0.97, -0.24, 0.24, 0.97, -84.56, 68.41)" xlink:href="#linear-gradient"/><linearGradient id="linear-gradient-5" x1="516.99" y1="108.92" x2="545.79" y2="259.11" gradientTransform="translate(-49.31 226.96) rotate(-19.41)" xlink:href="#linear-gradient"/><linearGradient id="linear-gradient-6" x1="246.56" y1="329.69" x2="273.54" y2="470.37" gradientTransform="translate(187.71 -218.63) rotate(24.44)" xlink:href="#linear-gradient"/><linearGradient id="linear-gradient-7" x1="380.78" y1="243.06" x2="415.97" y2="426.52" gradientTransform="matrix(0.97, 0.24, -0.24, 0.97, 90.53, -222.63)" xlink:href="#linear-gradient"/><linearGradient id="linear-gradient-8" x1="423.85" y1="316.29" x2="452.65" y2="466.49" gradientTransform="translate(594.26 -198.15) rotate(54.91)" xlink:href="#linear-gradient"/><linearGradient id="linear-gradient-9" x1="218.63" y1="117.44" x2="248.63" y2="273.87" gradientTransform="matrix(0.81, -0.59, 0.59, 0.81, -8.02, 387.26)" xlink:href="#linear-gradient"/></defs><path class="cls-1" d="M390.51,391.36a15,15,0,0,0-5.21,8.73l-18.22-21.78,3-20.25,5.5-.66,2.66,22Z" transform="translate(-212.06 -128.8)"/><path class="cls-1" d="M433,378.31l-18.21,21.78a15,15,0,0,0-5.21-8.73l12.31-12,2.66-22,5.5.66Z" transform="translate(-212.06 -128.8)"/><path class="cls-1" d="M409.54,434.34a23.26,23.26,0,0,0-18.33-.31l2.63-17.44a14.92,14.92,0,0,0,13-.3Z" transform="translate(-212.06 -128.8)"/><path class="cls-1" d="M509.83,560.56c1,.56,2,1.09,2.88,1.54,7.41,3.78,12.86,4.66,16.38,4.65q-2.28,2.25-4.64,4.42a47.26,47.26,0,0,1-16.33-5.45c-8.89-4.7-19.54-10.61-37.63-6.51a46.13,46.13,0,0,1,18.84,10.42c14.88-1.38,22.24,6.89,22.24,6.89L509.52,578a22.83,22.83,0,0,0-17.09-5.17c5.59,6.49,7.86,13.31,7.91,17l-1.57,1c-1.86-6.16-8.16-13.45-15.69-18.88-1.65,5.24-2.7,14.43,6.93,20.62l-2.3,2.36s-14.24-6.74-8.94-25.8c-6.28-3.7-13-5.85-18.42-4.93,7.08,7,7.76,16.21,9.75,24.92A16.61,16.61,0,0,0,480,601.36c-1.63.78-3.26,1.53-4.91,2.27a39.8,39.8,0,0,1-10.61-17.4c-4.83-16.16-20-28.23-35-27.5,12.06,8.87,17.68,19.6,20.08,29.27,2,.31,12.62,2.58,16.27,17.17a10.68,10.68,0,0,0-1.56.71s-2.86-10.63-13.6-12a57.67,57.67,0,0,1-.66,18.77c-2.24.62-4.49,1.21-6.76,1.74,1.09-5,3.11-18.72-3.63-30.08-.65-1.09-1.34-2.1-2-3.07a26.3,26.3,0,0,0-.1,24l-2.87,1.18a46.51,46.51,0,0,1-3.25-31.9,40.67,40.67,0,0,0-14.9-8.11s4.34,9.65,5.79,27.5c1.69,12.94,5.45,19.64,8.3,23-1.82.31-3.65.57-5.5.82-2.4-3.74-5.46-10.19-7.9-20.91-5.7,5.69-6.84,18.75-7.05,22.26-1,0-2,.09-2.95.12.38-5.85,1.5-15.4,4.8-23.81,5.2-13.23-11-31.19-11-31.19a57.65,57.65,0,0,0-4.92,6.45c11.41,10,6.8,27.58,6.8,27.58s-2.67-1.27-2.67-1.32a23.11,23.11,0,0,0-7.64-20.26c-2.92,5.81-4.94,12.75-2.6,18.73,3.31,8.41,4.43,18,4.81,23.82-1,0-2-.07-2.95-.12-.21-3.5-1.35-16.58-7.05-22.28-2.44,10.74-5.52,17.19-7.92,20.93q-2.76-.37-5.5-.82c2.85-3.33,6.62-10,8.31-23,1.45-17.86,5.8-27.51,5.8-27.51A40.58,40.58,0,0,0,371.22,574c5.06,17.69-3.09,32.51-3.09,32.51l-2.88-1.18a26.4,26.4,0,0,0-.46-24.77,39.56,39.56,0,0,0-2.55,3.78c-6.75,11.37-4.72,25.05-3.63,30.09-2.27-.53-4.53-1.11-6.76-1.74a57.25,57.25,0,0,1-.68-18.63c-10,1.84-12.71,11.87-12.71,11.87a10,10,0,0,0-1.55-.71c3.26-13,12-16.23,15.34-17,2.38-9.73,8-20.53,20.12-29.47-15-.72-30.16,11.34-35,27.51a39.85,39.85,0,0,1-10.62,17.41q-2.47-1.11-4.91-2.28a16.6,16.6,0,0,0,9.89-12.17c2-8.72,2.66-17.92,9.74-24.91-5.23-.9-11.6,1.06-17.66,4.49C329.48,588.15,315,595,315,595l-2.3-2.36c10-6.4,8.5-16,6.76-21.14-7.85,5.48-14.49,13-16.41,19.4l-1.56-1c.05-3.74,2.32-10.61,8-17.13A22.93,22.93,0,0,0,293.21,578l-2-1.49s7.09-8,21.42-7a46.08,46.08,0,0,1,18.77-10.36c-18.09-4.1-28.73,1.8-37.63,6.51a47.24,47.24,0,0,1-16.34,5.44c-1.57-1.44-3.12-2.91-4.63-4.41,3.51,0,9-.87,16.38-4.64.68-.35,1.39-.73,2.13-1.13-10.34-4.86-20.37.31-20.37.31s-.1-.68-.45-2.4c15-5.23,22.72-2.38,25.65-.59,10-5.48,24.64-12.22,44.91-7,14,3.65,30.14-3.8,40.18-36a129,129,0,0,0,4.32-19l3.09-20.31a23.25,23.25,0,0,0,23.51-.39l4.15,26.76c6.63,36.36,28.91,53.06,44.59,49,19.7-5,34.06,1.2,44.05,6.58,3.42-1.74,11-3.76,24.84,1-.35,1.72-.45,2.4-.45,2.4S519.83,556.41,509.83,560.56Z" transform="translate(-212.06 -128.8)"/><circle class="cls-1" cx="187.96" cy="274.14" r="12.49"/><circle class="cls-1" cx="187.96" cy="326.81" r="20.81"/><path class="cls-2" d="M416.68,350.87S361.12,269.14,455.45,181c0,0,86.35,101.68-24.14,170.76,0,0,2.61-65.56,15-92.27C446.32,259.53,413.1,317.63,416.68,350.87Z" transform="translate(-212.06 -128.8)"/><path class="cls-3" d="M454.21,358.74s34.12-71.88,133.73-42.24c0,0-35.44,101.39-128.42,52.77,0,0,46.6-24.87,70.2-27.14C529.72,342.13,475.81,342.73,454.21,358.74Z" transform="translate(-212.06 -128.8)"/><path class="cls-4" d="M350.42,360.17s-65.64,46.14-138.36-29.32c0,0,81.45-71.39,138.93,17.44,0,0-53.25-1.29-75.09-11C275.9,337.27,323.49,363.5,350.42,360.17Z" transform="translate(-212.06 -128.8)"/><path class="cls-5" d="M366.9,338.49s-85-29-64.64-144.52c0,0,118.28,26.64,75.76,137.21,0,0-33.91-49.06-39.5-75.23C338.52,256,346.16,316.33,366.9,338.49Z" transform="translate(-212.06 -128.8)"/><path class="cls-6" d="M500.24,292.36s-2.39-53.5,66.18-67.3c0,0,10.91,71.46-59.71,71.88,0,0,19.87-29.48,33.18-38.28C539.89,258.66,508,276,500.24,292.36Z" transform="translate(-212.06 -128.8)"/><path class="cls-7" d="M289.66,294.51s-50,7.86-70.13-55.06c0,0,65.94-17.75,73.76,48.5,0,0-29.77-15.54-39.43-27.12C253.86,260.83,273.5,288.91,289.66,294.51Z" transform="translate(-212.06 -128.8)"/><path class="cls-8" d="M387.41,230.59s-39.6-42.21,6.95-101.79c0,0,59.24,51,1.59,101,0,0-4.45-38.17.28-54.76C396.23,175,382.31,211.71,387.41,230.59Z" transform="translate(-212.06 -128.8)"/><path class="cls-9" d="M456.65,391.6s50.86-16.76,82.68,45.52c0,0-65.84,29.83-85.35-38.05,0,0,33.76,11.16,45.83,21.59C499.81,420.66,474.48,394.68,456.65,391.6Z" transform="translate(-212.06 -128.8)"/><path class="cls-10" d="M352.83,401.3S333,453.93,261.1,438.91c0,0,19-73.51,87.38-44.72,0,0-31.37,20.26-47.87,23.25C300.61,417.44,338.54,413.85,352.83,401.3Z" transform="translate(-212.06 -128.8)"/></svg>